<?xml version="1.0" encoding="utf-8"?>
<svg xmlns="http://www.w3.org/2000/svg" xmlns:xlink="http://www.w3.org/1999/xlink" style="margin: auto; background: rgba(255, 255, 255, 0); display: block; shape-rendering: auto;" width="267px" height="267px" viewBox="0 0 100 100" preserveAspectRatio="xMidYMid">
<g transform="translate(50 50)">
<g>
<animateTransform attributeName="transform" type="rotate" values="0;32.72727272727273" keyTimes="0;1" dur="0.2s" repeatCount="indefinite"></animateTransform><path d="M29.795133830879163 -3.5 L37.795133830879166 -3.5 L37.795133830879166 3.5 L29.795133830879163 3.5 A30 30 0 0 1 26.95750445749953 13.164078145616307 L26.95750445749953 13.164078145616307 L33.68753272014898 17.489204685261086 L29.903046997959798 23.377979415079356 L23.17301873531035 19.052852875434574 A30 30 0 0 1 15.561057891488428 25.648654492930923 L15.561057891488428 25.648654492930923 L18.88437799550352 32.92571045576707 L12.516954028021892 35.83361554678028 L9.1936339240068 28.556559583944132 A30 30 0 0 1 -0.7759146058891863 29.98996426347267 L-0.7759146058891863 29.98996426347267 L-1.9144333120754662 37.908535798520134 L-8.843183405241994 36.91233193060714 L-7.704664699055714 28.993760395559676 A30 30 0 0 1 -16.866539698247617 24.809672279323586 L-16.866539698247617 24.809672279323586 L-22.105425569809896 30.85566887415765 L-27.395672590289706 26.27164373654066 L-22.156786718727425 20.22564714170659 A30 30 0 0 1 -27.602157609687154 11.752484643256908 L-27.602157609687154 11.752484643256908 L-35.278101398603134 14.006345097988346 L-37.25022929649314 7.2898942826868645 L-29.574285507577162 5.036033827955427 A30 30 0 0 1 -29.574285507577162 -5.0360338279554195 L-29.574285507577162 -5.0360338279554195 L-37.25022929649314 -7.289894282686855 L-35.278101398603134 -14.006345097988337 L-27.602157609687158 -11.752484643256901 A30 30 0 0 1 -22.156786718727428 -20.225647141706588 L-22.156786718727428 -20.225647141706588 L-27.395672590289706 -26.271643736540653 L-22.105425569809896 -30.855668874157658 L-16.866539698247614 -24.80967227932359 A30 30 0 0 1 -7.704664699055721 -28.993760395559672 L-7.704664699055721 -28.993760395559672 L-8.843183405242003 -36.91233193060714 L-1.9144333120754755 -37.908535798520134 L-0.7759146058891937 -29.98996426347267 A30 30 0 0 1 9.193633924006788 -28.556559583944136 L9.193633924006788 -28.556559583944136 L12.516954028021875 -35.83361554678029 L18.884377995503502 -32.92571045576708 L15.561057891488414 -25.64865449293093 A30 30 0 0 1 23.173018735310354 -19.052852875434574 L23.173018735310354 -19.052852875434574 L29.903046997959805 -23.377979415079356 L33.68753272014898 -17.489204685261086 L26.95750445749953 -13.164078145616305 A30 30 0 0 1 29.795133830879163 -3.5000000000000067 M0 -24A24 24 0 1 0 0 24 A24 24 0 1 0 0 -24" fill="#ffffff"></path></g></g>
<!-- [ldio] generated by https://loading.io/ --></svg>